<svg width="60" height="31" viewBox="0 0 60 31" fill="none" xmlns="http://www.w3.org/2000/svg">
<rect width="60" height="30.5263" fill="white"/>
<path fill-rule="evenodd" clip-rule="evenodd" d="M40.7951 5.63182C40.4578 5.56832 40.1911 5.74847 40.1405 6.01934C39.2938 10.5452 36.8631 14.4657 33.4645 17.2911C33.4418 17.1226 33.4125 16.958 33.3658 16.7986C33.0738 15.8032 32.3138 15.0023 30.8418 14.4385C30.5764 14.3374 30.2751 14.4631 30.1711 14.7197C30.0671 14.9764 30.1978 15.2667 30.4618 15.3691C31.5978 15.8032 32.1698 16.3761 32.3725 17.0682C32.4618 17.374 32.4831 17.7123 32.4551 18.0765C32.4365 18.0908 32.1925 19.2974 32.1925 19.2974L32.0511 19.5721C32.0871 19.5501 32.1218 19.5281 32.1578 19.506C32.1325 19.5864 32.1071 19.6655 32.0805 19.7471C31.9938 20.0089 31.9018 20.2487 31.8151 20.4768C31.5418 21.1896 31.3045 21.8052 31.3351 22.5997C30.7791 22.0346 30.3391 21.3983 29.9911 20.7425C30.0364 20.7192 30.0804 20.6958 30.1258 20.6725L29.9338 20.6958L29.5218 19.8975L29.5564 19.8119C28.5578 17.3352 28.6711 14.8701 28.6711 14.8597C28.6698 14.8195 28.6671 14.8001 28.6644 14.7794C28.6551 14.7223 28.6498 14.7029 28.6431 14.686C28.6204 14.6316 28.6111 14.6148 28.6031 14.5979C28.5698 14.5487 28.5578 14.5344 28.5458 14.5201C28.5044 14.4787 28.4898 14.4657 28.4751 14.454C28.4258 14.4203 28.4084 14.4113 28.3911 14.4022C28.3351 14.3776 28.3178 14.3724 28.2978 14.3672C26.0084 14.051 23.9698 13.1541 22.3071 11.8205C20.8831 10.6773 19.7364 9.21152 18.9871 7.52147C19.7271 7.69125 20.4618 7.86881 21.1924 8.04637C24.5644 8.86417 27.9244 9.67939 32.0285 9.6107C32.2925 9.60552 32.5498 9.59774 32.7991 9.58737C33.0791 9.57441 33.3431 9.56015 33.5871 9.5433C34.8378 9.38778 35.7751 9.03914 36.4951 8.52979C37.3151 7.95046 37.8485 7.17024 38.1391 6.263C38.1471 6.23449 38.1498 6.21634 38.1525 6.1982C38.1618 6.12691 38.1605 6.11525 38.1591 6.10359C38.1551 6.03489 38.1498 6.01934 38.1458 6.00379C38.1285 5.94288 38.1205 5.92732 38.1138 5.91177C38.0858 5.85604 38.0751 5.84308 38.0658 5.82882C38.0258 5.77957 38.0138 5.7692 38.0005 5.75754C37.9511 5.71477 37.9378 5.7057 37.9218 5.69663C37.8645 5.66422 37.8458 5.65774 37.8271 5.65126C37.7698 5.63182 37.7511 5.62923 37.7311 5.62664C36.1338 5.5424 34.6551 5.29485 33.5858 4.54832C32.7525 3.9664 32.1511 3.05527 31.9391 1.64258C32.8725 2.08842 34.1311 2.14545 35.3831 2.20247C36.9365 2.27375 38.4778 2.34374 38.9671 3.16544C39.1085 3.40391 39.4231 3.48686 39.6698 3.34948C39.7525 3.30412 39.8165 3.23931 39.8605 3.16414C40.3511 2.34374 41.8911 2.27375 43.4418 2.20247C44.6951 2.14545 45.9551 2.08842 46.8858 1.64258C46.6618 3.1447 45.9938 4.08045 45.0765 4.65719C43.9378 5.37391 42.3818 5.57998 40.7951 5.63182ZM8.17908 17.9655C4.89107 15.5237 2.38573 12.0957 1.15506 8.05718C1.46839 7.96127 2.08306 7.7876 2.08306 7.7876L3.0964 7.51802L3.9484 7.31584L4.97774 7.09551L5.84307 6.93739L6.89241 6.77668L7.77241 6.66652L9.75241 6.51877L10.8751 6.49414C10.8751 6.49414 11.5058 6.49803 11.8151 6.5071L13.0124 6.56931C14.6911 6.68855 16.2564 6.94387 17.7711 7.25622C18.5658 9.37267 19.9191 11.2014 21.6498 12.5895C23.3431 13.9477 25.3978 14.8887 27.6391 15.2697C27.6538 16.1445 27.7898 18.1949 28.6418 20.2608C26.1124 21.365 23.3191 21.9794 20.3951 21.9794C15.8538 21.9794 11.5964 20.5019 8.17908 17.9655ZM47.0485 0.233343C46.5098 1.06411 44.9458 1.13539 43.3938 1.20538C41.8538 1.27666 40.3218 1.34665 39.4138 2.13595C38.5045 1.34665 36.9738 1.27666 35.4338 1.20538C33.8804 1.13539 32.3164 1.06411 31.7778 0.233343C31.6858 0.0933696 31.5244 5.38788e-05 31.3391 5.38788e-05C31.0551 0.00134993 30.8258 0.225567 30.8271 0.50033C30.8378 2.95894 31.6871 4.45069 32.9844 5.35663C34.0711 6.11612 35.4524 6.43624 36.9031 6.56455C36.6631 7.01558 36.3298 7.40958 35.8858 7.72452C35.2911 8.14574 34.4938 8.43475 33.4631 8.54881C33.2071 8.56695 32.9698 8.58121 32.7551 8.59028C32.4924 8.60065 32.2458 8.60972 32.0111 8.61361C28.0511 8.681 24.7538 7.88004 21.4431 7.07649C20.4138 6.82635 19.3831 6.57751 18.3311 6.352C18.2857 6.33515 18.2377 6.32478 18.1884 6.3209C13.3951 5.30609 8.13106 4.82525 0.461709 7.22165C0.107041 7.3046 -0.056959 7.57936 0.0177078 7.84505C1.25238 12.3074 3.96038 16.0918 7.55372 18.7591C11.1457 21.4264 15.6231 22.979 20.3951 22.979C23.4684 22.979 26.4071 22.3336 29.0658 21.1723C29.6871 22.3518 30.5751 23.4793 31.8471 24.3334C32.0818 24.4889 32.4031 24.4319 32.5644 24.2064C32.6604 24.0703 32.6791 23.9044 32.6271 23.7593C32.1564 22.4503 32.4311 21.7322 32.7791 20.8224C32.8724 20.5813 32.9698 20.3273 33.0618 20.0513C33.2271 19.551 33.3538 19.0714 33.4271 18.6113C33.5924 18.4856 33.7591 18.3612 33.9191 18.2303C37.4978 15.3375 40.0845 11.2977 41.0645 6.61899C42.7298 6.5477 44.3645 6.29497 45.6378 5.49401C47.0458 4.60752 47.9818 3.09891 47.9991 0.523659C48.0071 0.349988 47.9231 0.176317 47.7591 0.0765209C47.5178 -0.0699329 47.2005 5.38776e-05 47.0485 0.233343Z" transform="translate(53.9999 3.05273) scale(-1 1)" fill="url(#paint0_linear)"/>
<defs>
<linearGradient id="paint0_linear" x2="1" gradientUnits="userSpaceOnUse" gradientTransform="matrix(-44 14.5 -25.186 -79.1315 60.5927 39.5658)">
<stop stop-color="#0D99B7"/>
<stop offset="1" stop-color="#BE72F9"/>
</linearGradient>
</defs>
</svg>
